<svg width="58" height="91" viewBox="0 0 58 91" fill="none" xmlns="http://www.w3.org/2000/svg">
<path d="M57.7499 5.52612L56.7226 1.71563C56.5429 1.0482 55.8515 0.652415 55.1796 0.830905L51.3437 1.8514C51.0195 1.93677 50.7461 2.14632 50.5781 2.43346L27.1561 42.7268L26.7421 42.4901C25.8944 42.0051 24.9023 41.8732 23.953 42.1293C23.0037 42.3815 22.2069 42.9868 21.7186 43.8288C21.1639 44.7834 21.0975 45.8854 21.4334 46.8517C20.9021 47.4182 20.2342 48.0197 19.4373 48.6522C17.4256 50.247 15.9568 51.9427 14.6717 54.1546L1.2227 77.2933C-1.2968 81.6239 0.203196 87.1844 4.5665 89.6877C5.9649 90.4909 7.5196 90.8984 9.1017 90.8984C9.89858 90.8984 10.7033 90.7937 11.4923 90.5841C13.8556 89.9555 15.8243 88.4577 17.0392 86.3661L30.4882 63.2274C31.7734 61.0155 32.5155 58.9046 32.9023 56.3747C33.0546 55.3774 33.246 54.5044 33.4726 53.7632C34.4843 53.5692 35.4101 52.9561 35.9648 52.0015C36.9804 50.2554 36.375 48.0164 34.6171 47.0075L34.203 46.7708L57.625 6.47745C57.793 6.19031 57.8359 5.8482 57.7499 5.52612ZM16.0229 60.5851L7.50344 75.2413L4.92533 75.9282L15.3313 58.0245L16.0229 60.5851ZM5.82394 87.5185C4.71844 86.886 3.87084 85.978 3.30834 84.938C4.55054 84.7052 5.85524 84.9147 6.96854 85.5511C8.07794 86.1875 8.91384 87.2042 9.33184 88.3877C8.10914 88.4304 6.90204 88.1355 5.82394 87.5185ZM15.6872 79.9362L24.2067 65.28L26.7848 64.5931L16.3788 82.4968L15.6872 79.9362ZM30.4102 56.0018C30.1016 58.0352 29.5235 59.758 28.5586 61.5275L23.0508 62.9943C22.7266 63.0797 22.4532 63.2892 22.2852 63.5764L13.2461 79.1287C13.0781 79.4158 13.0352 79.7573 13.1211 80.0794L14.5938 85.5313C13.8946 86.5479 12.9336 87.3357 11.8047 87.8285C11.2227 85.9698 9.95312 84.3672 8.23442 83.3815C6.51171 82.3959 4.48052 82.1049 2.56642 82.5356C2.43361 81.3521 2.62892 80.122 3.1797 78.9851L8.668 77.5221C8.99222 77.4368 9.26566 77.2272 9.43362 76.9401L18.4727 61.3878C18.6407 61.1006 18.6837 60.7592 18.5977 60.4371L17.1211 54.9658C18.1797 53.2506 19.3945 51.8886 21.0117 50.6081C21.8008 49.9834 22.4726 49.3858 23.0429 48.8037C23.0507 48.8076 23.0585 48.8154 23.0664 48.8193L30.9414 53.3361C30.9492 53.3399 30.9609 53.3438 30.9687 53.3516C30.746 54.1315 30.5624 55.0085 30.414 55.998L30.4102 56.0018ZM33.7852 50.7516C33.4649 51.3026 32.754 51.4928 32.1993 51.1746L24.3243 46.6578C23.7696 46.3396 23.5821 45.6334 23.8986 45.0824C24.0509 44.8185 24.3009 44.6284 24.6017 44.5469C24.7032 44.5197 24.8048 44.5081 24.9064 44.5081C25.1056 44.5081 25.3048 44.5585 25.4806 44.6594L33.3556 49.1762C33.9103 49.4944 34.0978 50.2006 33.7814 50.7516L33.7852 50.7516ZM32.0235 45.5209L29.3399 43.9804L52.4999 4.13301L54.6132 3.57035L55.1796 5.66966L32.0196 45.517L32.0235 45.5209Z" fill="#FBFBFB"/>
</svg>
