<svg width="76" height="93" viewBox="0 0 76 93" fill="none" xmlns="http://www.w3.org/2000/svg">
<path d="M57.2995 72.5482V62.1398H65.117C67.5981 62.1398 69.6136 60.1216 69.6136 57.6432V29.87C69.6136 27.3889 67.5953 25.3734 65.117 25.3734H60.58V21.119C60.58 20.5243 60.0984 20.0426 59.5037 20.0426H55.0178V10.1184C55.0178 9.52374 54.5361 9.04205 53.9414 9.04205H21.8516C21.2569 9.04205 20.7752 9.52374 20.7752 10.1184V20.0426H16.2759C15.6812 20.0426 15.1996 20.5243 15.1996 21.119V25.3734H10.6626C8.1815 25.3734 6.16602 27.3916 6.16602 29.87V57.6432C6.16602 60.1243 8.18425 62.1398 10.6626 62.1398H18.4932V72.5482C18.4932 73.1429 18.9749 73.6246 19.5696 73.6246H56.2205C56.8153 73.6246 57.2969 73.1429 57.2969 72.5482H57.2995ZM58.427 22.1946V25.3726H55.0175V22.1946H58.427ZM52.8648 11.1937V21.1048C52.8648 21.1048 52.8621 21.1128 52.8621 21.1182C52.8621 21.1236 52.8648 21.1263 52.8648 21.1317V25.3726H22.9277V11.1939L52.8648 11.1937ZM17.3518 22.1946H20.7748V25.3726H17.3518V22.1946ZM10.6621 59.9864C9.37045 59.9864 8.31831 58.9342 8.31831 57.6425V29.8693C8.31831 28.5776 9.37045 27.5255 10.6621 27.5255H65.1167C66.4084 27.5255 67.4605 28.5776 67.4605 29.8693V57.6425C67.4605 58.9342 66.4084 59.9864 65.1167 59.9864H57.2992V49.1474H60.6441C61.2388 49.1474 61.7205 48.6657 61.7205 48.071C61.7205 47.4763 61.2388 46.9946 60.6441 46.9946H56.2498C56.239 46.9946 56.2309 46.9892 56.2202 46.9892C56.2094 46.9892 56.2013 46.9946 56.1906 46.9946H19.5988C19.5881 46.9946 19.58 46.9892 19.5692 46.9892C19.5585 46.9892 19.5504 46.9946 19.5396 46.9946H15.1426C14.5479 46.9946 14.0662 47.4763 14.0662 48.071C14.0662 48.6657 14.5479 49.1474 15.1426 49.1474H18.4929V59.9864H10.6621ZM55.1464 71.4715H20.6455V49.1474H55.1437V71.4715H55.1464Z" fill="black"/>
<path d="M15.5458 32.652C15.5458 32.0572 15.0641 31.5756 14.4694 31.5756H13.175C12.5803 31.5756 12.0986 32.0572 12.0986 32.652C12.0986 33.2467 12.5803 33.7283 13.175 33.7283H14.4694C15.0641 33.7283 15.5458 33.2467 15.5458 32.652Z" fill="black"/>
<path d="M50.4503 52.9342H25.341C24.7463 52.9342 24.2646 53.4159 24.2646 54.0106C24.2646 54.6053 24.7463 55.087 25.341 55.087H50.4503C51.0451 55.087 51.5267 54.6053 51.5267 54.0106C51.5267 53.4159 51.0451 52.9342 50.4503 52.9342Z" fill="black"/>
<path d="M50.4503 58.4963H25.341C24.7463 58.4963 24.2646 58.978 24.2646 59.5727C24.2646 60.1674 24.7463 60.6491 25.341 60.6491H50.4503C51.0451 60.6491 51.5267 60.1674 51.5267 59.5727C51.5267 58.978 51.0451 58.4963 50.4503 58.4963Z" fill="black"/>
<path d="M45.3939 64.0557H25.341C24.7463 64.0557 24.2646 64.5373 24.2646 65.1321C24.2646 65.7268 24.7463 66.2084 25.341 66.2084H45.3939C45.9886 66.2084 46.4703 65.7268 46.4703 65.1321C46.4703 64.5373 45.9886 64.0557 45.3939 64.0557Z" fill="black"/>
</svg>
