<svg width="132" height="95" viewBox="0 0 132 95" fill="none" xmlns="http://www.w3.org/2000/svg">
<path d="M115.069 8.0483H16.9395C16.0548 8.0483 15.3246 8.76036 15.3246 9.65392V75.3449C15.3246 76.2245 16.0408 76.9505 16.9395 76.9505H115.069C115.954 76.9505 116.684 76.2384 116.684 75.3449V9.63996C116.684 8.76036 115.968 8.0483 115.069 8.0483ZM113.468 73.7392H18.5404V11.2456H113.468V73.7392ZM131.204 83.2892C130.263 81.8232 128.718 80.9855 126.963 80.9855H123.972V7.22454C123.972 3.67821 121.065 0.788086 117.498 0.788086H14.5102C10.9433 0.788086 8.03654 3.67821 8.03654 7.22454V80.9855H5.04547C3.29015 80.9855 1.74547 81.8232 0.804622 83.3032C-0.136229 84.7692 -0.262612 86.5284 0.481643 88.1061C3.09356 93.7048 7.23611 94.1656 11.5893 94.1656H120.405C124.772 94.1656 128.901 93.7048 131.513 88.1061C132.257 86.5144 132.145 84.7692 131.204 83.2892ZM11.2523 7.22454C11.2523 5.43741 12.7127 3.99933 14.4961 3.99933H117.484C119.282 3.99933 120.728 5.45138 120.728 7.22454V80.9855H11.2523V7.22454ZM79.6676 84.1828L79.3446 84.8948C79.0357 85.579 78.4318 85.9699 77.6876 85.9699H54.3208C53.5765 85.9699 52.9587 85.579 52.6638 84.8948L52.3408 84.1828H79.6676ZM128.606 86.7518C126.78 90.6611 124.168 90.9543 120.419 90.9543H11.6033C7.83994 90.9543 5.24207 90.6611 3.40249 86.7518C3.12164 86.1654 3.16377 85.565 3.51483 85.0205C3.8659 84.476 4.39951 84.1828 5.04547 84.1828H48.8161L49.7148 86.1933C50.5293 88.0363 52.2987 89.1672 54.3208 89.1672H77.6876C79.7097 89.1672 81.4791 88.0223 82.2935 86.1933L83.1923 84.1828H126.963C127.609 84.1828 128.142 84.476 128.494 85.0205C128.845 85.565 128.873 86.1654 128.606 86.7518Z" fill="#FBFBFB"/>
</svg>
